<?xml version="1.0" encoding="utf-8"?>
<!-- Generator: Adobe Illustrator 23.1.0, SVG Export Plug-In . SVG Version: 6.00 Build 0)  -->
<svg version="1.1" id="Capa_1" xmlns="http://www.w3.org/2000/svg" xmlns:xlink="http://www.w3.org/1999/xlink" x="0px" y="0px"
	 viewBox="0 0 512 512" style="enable-background:new 0 0 512 512;" xml:space="preserve">
<style type="text/css">
	.st0{fill:#5D4E60;}
	.st1{fill:#FFFFFF;}
</style>
<circle class="st0" cx="256" cy="256" r="256"/>
<g>
	<path class="st1" d="M270.4,255.5l14.4,25c0.6,1.1,1.7,1.9,2.9,2.2c1.2,0.3,2.5,0.2,3.6-0.5l12.6-7.3v14.7c0,2.7,2.1,4.8,4.8,4.8
		h28.8c2.7,0,4.8-2.1,4.8-4.8v-14.7l12.8,7.3c1.1,0.6,2.4,0.8,3.6,0.5c1.2-0.4,2.2-1.1,2.8-2.2l14.4-25c1.3-2.3,0.5-5.2-1.8-6.5
		l-12.6-7.4c0-1.1,0-2.1,0-3.1c-0.2-2.7-2.5-4.6-5.2-4.4c-2.7,0.2-4.6,2.5-4.4,5.2c0.2,1.6,0.2,3.2,0,4.8c-0.2,1.9,0.8,3.6,2.4,4.6
		l11.1,6.4l-9.6,16.6l-11.1-6.4c-1.6-1-3.5-1-5.1,0c-1.3,0.9-2.6,1.6-4,2.3c-1.7,0.8-2.7,2.5-2.7,4.3v12.9h-19.3v-12.9
		c0-1.8-1.1-3.5-2.7-4.3c-1.4-0.7-2.7-1.4-4-2.3c-1.6-1-3.5-1-5.1,0l-11.1,6.4l-9.6-16.6l11.1-6.4c1.6-0.9,2.6-2.7,2.4-4.6
		c-0.2-1.6-0.2-3.2,0-4.8c0.2-1.9-0.8-3.6-2.4-4.6l-11.1-6.4l9.6-16.6l11.1,6.4c1.6,0.9,3.6,0.8,5.1-0.2c1.3-0.9,2.6-1.6,4-2.3
		c1.7-0.8,2.7-2.5,2.7-4.3v-12.9h19.2v12.9c0,1.8,1.1,3.5,2.7,4.3c1.4,0.7,2.7,1.4,4,2.3c1.5,1,3.5,1.1,5.1,0.2l11.1-6.4l12,20.8
		c1.3,2.3,4.3,3.1,6.6,1.8c2.3-1.3,3.1-4.3,1.8-6.6l-14.4-25c-0.6-1.1-1.7-1.9-2.9-2.2c-1.2-0.3-2.5-0.2-3.6,0.5l-12.8,7.3v-14.7
		c0-2.7-2.1-4.8-4.8-4.8h-28.8c-2.7,0-4.8,2.1-4.8,4.8v14.7l-12.8-7.3c-1.1-0.6-2.4-0.8-3.6-0.5c-1.2,0.3-2.3,1.1-2.9,2.2l-14.4,25
		c-1.3,2.3-0.5,5.2,1.8,6.5l12.8,7.4L272,249C269.8,250.4,269.1,253.3,270.4,255.5z"/>
	<path class="st1" d="M323.2,222.4c-10.6,0-19.2,8.6-19.2,19.2c0,10.6,8.6,19.2,19.2,19.2c10.6,0,19.2-8.6,19.2-19.2
		C342.4,231,333.8,222.4,323.2,222.4z M323.2,251.2c-5.3,0-9.6-4.3-9.6-9.6c0-5.3,4.3-9.6,9.6-9.6c5.3,0,9.6,4.3,9.6,9.6
		C332.8,246.9,328.5,251.2,323.2,251.2z"/>
	<path class="st1" d="M137.4,335.8l33.9,33.9c0.9,0.9,2.1,1.4,3.4,1.4c1.3,0,2.5-0.5,3.4-1.4l13.6-13.6c1.9-1.9,1.9-4.9,0-6.8
		l-17-17l17-16.9c0.9-0.9,1.4-2.1,1.4-3.4s-0.5-2.5-1.4-3.4l-13.6-13.6c-0.9-0.9-2.1-1.4-3.4-1.4c-1.3,0-2.5,0.5-3.4,1.4L137.4,329
		c-0.9,0.9-1.4,2.1-1.4,3.4S136.5,334.9,137.4,335.8z M174.7,305.2l6.8,6.8L164.8,329c-0.9,0.9-1.4,2.1-1.4,3.4s0.5,2.5,1.4,3.4
		l17,16.9l-6.8,6.8l-27.4-27.2L174.7,305.2z"/>
	<path class="st1" d="M253.1,356.2l13.6,13.6c0.9,0.9,2.1,1.4,3.4,1.4c1.3,0,2.5-0.5,3.4-1.4l33.9-33.9c0.9-0.9,1.4-2.1,1.4-3.4
		s-0.5-2.5-1.4-3.4l-33.9-33.9c-0.9-0.9-2.1-1.4-3.4-1.4s-2.5,0.5-3.4,1.4l-13.6,13.7c-0.9,0.9-1.4,2.1-1.4,3.4
		c0,1.3,0.5,2.5,1.4,3.4l17,16.9l-17,17C251.3,351.4,251.3,354.3,253.1,356.2z M280.2,335.8c0.9-0.9,1.4-2.1,1.4-3.4
		s-0.5-2.5-1.4-3.4l-17-16.9l6.8-6.8l27.2,27.2l-27.2,27.2l-6.8-6.8L280.2,335.8z"/>
	<path class="st1" d="M202,377.4l18.9,3.4c0.3,0,0.6,0,0.9,0c2.4,0,4.4-1.7,4.8-4l5.1-28.8c0.4-2.7-1.3-5.2-4-5.6
		c-2.7-0.4-5.2,1.3-5.6,4l-4.3,24l-9.6-1.7l13.3-75.6l9.6,1.6l-5.7,32.4c-0.5,2.7,1.3,5.2,4,5.6c2.7,0.5,5.2-1.3,5.6-4l6.5-37
		c0.2-1.3,0-2.5-0.8-3.6c-0.7-1-1.9-1.8-3.1-2l-18.9-3.4c-2.6-0.4-5.1,1.3-5.5,3.9l-14.9,85.1C197.9,374.4,199.5,376.8,202,377.4z"
		/>
	<path class="st1" d="M145.6,227.2c2.7,0,4.8-2.1,4.8-4.8v-19.2c0-2.7-2.1-4.8-4.8-4.8c-2.7,0-4.8,2.1-4.8,4.8v19.2
		C140.8,225.1,142.9,227.2,145.6,227.2z"/>
	<path class="st1" d="M174.4,227.2c8,0,14.4-6.4,14.4-14.4s-6.4-14.4-14.4-14.4c-8,0-14.4,6.4-14.4,14.4S166.4,227.2,174.4,227.2z
		 M174.4,208c2.7,0,4.8,2.1,4.8,4.8c0,2.7-2.1,4.8-4.8,4.8c-2.7,0-4.8-2.1-4.8-4.8C169.6,210.1,171.7,208,174.4,208z"/>
	<path class="st1" d="M208,222.4v-19.2c0-2.7-2.1-4.8-4.8-4.8c-2.7,0-4.8,2.1-4.8,4.8v19.2c0,2.7,2.1,4.8,4.8,4.8
		C205.9,227.2,208,225.1,208,222.4z"/>
	<path class="st1" d="M232,198.4c-8,0-14.4,6.4-14.4,14.4s6.4,14.4,14.4,14.4s14.4-6.4,14.4-14.4S240,198.4,232,198.4z M232,217.6
		c-2.7,0-4.8-2.1-4.8-4.8c0-2.7,2.1-4.8,4.8-4.8s4.8,2.1,4.8,4.8C236.8,215.5,234.7,217.6,232,217.6z"/>
	<path class="st1" d="M140.8,260.8c0,2.7,2.1,4.8,4.8,4.8c2.7,0,4.8-2.1,4.8-4.8v-19.2c0-2.7-2.1-4.8-4.8-4.8
		c-2.7,0-4.8,2.1-4.8,4.8V260.8z"/>
	<path class="st1" d="M174.4,265.6c2.7,0,4.8-2.1,4.8-4.8c0-2.7-2.1-4.8-4.8-4.8c-2.7,0-4.8-2.1-4.8-4.8c0-2.7,2.1-4.8,4.8-4.8
		c2.7,0,4.8,2.1,4.8,4.8c0,2.7,2.1,4.8,4.8,4.8s4.8-2.1,4.8-4.8c0-8-6.4-14.4-14.4-14.4c-8,0-14.4,6.4-14.4,14.4
		S166.4,265.6,174.4,265.6z"/>
	<path class="st1" d="M236.8,241.6v19.2c0,2.7,2.1,4.8,4.8,4.8c2.7,0,4.8-2.1,4.8-4.8v-19.2c0-2.7-2.1-4.8-4.8-4.8
		C238.9,236.8,236.8,238.9,236.8,241.6z"/>
	<path class="st1" d="M212.8,265.6c8,0,14.4-6.4,14.4-14.4s-6.4-14.4-14.4-14.4s-14.4,6.4-14.4,14.4S204.8,265.6,212.8,265.6z
		 M212.8,246.4c2.7,0,4.8,2.1,4.8,4.8c0,2.7-2.1,4.8-4.8,4.8c-2.7,0-4.8-2.1-4.8-4.8C208,248.5,210.1,246.4,212.8,246.4z"/>
	<path class="st1" d="M395.2,280c-2.7,0-4.8,2.1-4.8,4.8v105.6H121.6v-72c0-2.7-2.1-4.8-4.8-4.8c-2.7,0-4.8,2.1-4.8,4.8v76.8
		c0,2.7,2.1,4.8,4.8,4.8h278.4c2.7,0,4.8-2.1,4.8-4.8V284.8C400,282.1,397.9,280,395.2,280z"/>
	<path class="st1" d="M395.2,112H116.8c-2.7,0-4.8,2.1-4.8,4.8v182.4c0,2.7,2.1,4.8,4.8,4.8c2.7,0,4.8-2.1,4.8-4.8v-120h268.8v86.4
		c0,2.7,2.1,4.8,4.8,4.8c2.7,0,4.8-2.1,4.8-4.8V116.8C400,114.1,397.9,112,395.2,112z M121.6,121.6h268.8v48H121.6V121.6z"/>
	<path class="st1" d="M376,140.8c2.7,0,4.8-2.1,4.8-4.8s-2.1-4.8-4.8-4.8H256c-2.7,0-4.8,2.1-4.8,4.8v19.2c0,2.7,2.1,4.8,4.8,4.8
		h120c2.7,0,4.8-2.1,4.8-4.8c0-2.7-2.1-4.8-4.8-4.8H260.8v-9.6H376z"/>
	<path class="st1" d="M145.6,131.2c-8,0-14.4,6.4-14.4,14.4c0,8,6.4,14.4,14.4,14.4c8,0,14.4-6.4,14.4-14.4
		C160,137.6,153.6,131.2,145.6,131.2z M145.6,150.4c-2.7,0-4.8-2.1-4.8-4.8c0-2.7,2.1-4.8,4.8-4.8c2.7,0,4.8,2.1,4.8,4.8
		C150.4,148.3,148.3,150.4,145.6,150.4z"/>
	<path class="st1" d="M184,131.2c-8,0-14.4,6.4-14.4,14.4c0,8,6.4,14.4,14.4,14.4c2.7,0,4.8-2.1,4.8-4.8c0-2.7-2.1-4.8-4.8-4.8
		s-4.8-2.1-4.8-4.8c0-2.7,2.1-4.8,4.8-4.8s4.8,2.1,4.8,4.8c0,2.7,2.1,4.8,4.8,4.8c2.7,0,4.8-2.1,4.8-4.8
		C198.4,137.6,192,131.2,184,131.2z"/>
	<path class="st1" d="M222.4,131.2c-8,0-14.4,6.4-14.4,14.4c0,8,6.4,14.4,14.4,14.4c8,0,14.4-6.4,14.4-14.4
		C236.8,137.6,230.4,131.2,222.4,131.2z M222.4,150.4c-2.7,0-4.8-2.1-4.8-4.8c0-2.7,2.1-4.8,4.8-4.8c2.7,0,4.8,2.1,4.8,4.8
		C227.2,148.3,225.1,150.4,222.4,150.4z"/>
</g>
</svg>
