<?xml version="1.0" encoding="utf-8"?>
<!-- Generator: Adobe Illustrator 23.1.0, SVG Export Plug-In . SVG Version: 6.00 Build 0)  -->
<svg version="1.1" id="Capa_1" xmlns="http://www.w3.org/2000/svg" xmlns:xlink="http://www.w3.org/1999/xlink" x="0px" y="0px"
	 viewBox="0 0 512 512" style="enable-background:new 0 0 512 512;" xml:space="preserve">
<style type="text/css">
	.st0{fill:#5D4E60;}
	.st1{fill:#FFFFFF;}
</style>
<circle class="st0" cx="256" cy="256" r="256"/>
<g id="Outline">
	<g>
		<path class="st1" d="M288.7,142c0.5,0.1,0.9,0.2,1.4,0.2c2.1,0,4-1.4,4.6-3.5l5.6-18.7c0.8-2.6-0.7-5.3-3.2-6s-5.3,0.7-6,3.2l0,0
			l-5.6,18.7C284.7,138.6,286.2,141.3,288.7,142C288.7,142,288.7,142,288.7,142z"/>
		<path class="st1" d="M320.6,149.8c2.3,1.3,5.3,0.4,6.6-1.9l9.4-17.3c1.3-2.4,0.4-5.3-1.9-6.6s-5.3-0.4-6.6,1.9l-9.4,17.3
			C317.4,145.6,318.3,148.5,320.6,149.8C320.6,149.8,320.6,149.8,320.6,149.8z"/>
		<path class="st1" d="M356.9,165.6c1.4,0,2.8-0.6,3.7-1.7l12.7-15.1c1.7-2,1.5-5.1-0.5-6.8s-5.1-1.5-6.8,0.5c0,0-0.1,0.1-0.1,0.1
			l-12.7,15.1c-1.7,2-1.5,5.1,0.6,6.8C354.7,165.2,355.8,165.6,356.9,165.6z"/>
		<path class="st1" d="M386.4,189.6c1.1,0,2.2-0.4,3.1-1.1l15-12.6c2-1.8,2.2-4.8,0.5-6.8c-1.7-2-4.7-2.2-6.7-0.6l-15,12.6
			c-2,1.7-2.3,4.8-0.6,6.8C383.6,189,385,189.6,386.4,189.6L386.4,189.6z"/>
		<path class="st1" d="M160.1,163.8c1.7,2.1,4.7,2.4,6.8,0.7c2.1-1.7,2.4-4.7,0.7-6.8c0,0-0.1-0.1-0.1-0.1l-12.7-15.1
			c-1.7-2-4.8-2.2-6.8-0.5c-2,1.7-2.2,4.7-0.6,6.7L160.1,163.8z"/>
		<path class="st1" d="M193.5,147.8c1.3,2.4,4.2,3.2,6.6,1.9c2.4-1.3,3.2-4.2,1.9-6.6l-9.4-17.3c-1.3-2.4-4.2-3.2-6.6-1.9
			c-2.4,1.3-3.2,4.2-1.9,6.6L193.5,147.8z"/>
		<path class="st1" d="M131.3,188.6c2.1,1.7,5.1,1.4,6.8-0.7c1.7-2.1,1.4-5.1-0.7-6.8c-0.1-0.1-0.2-0.1-0.2-0.2l-14.3-11.1
			c-2.1-1.7-5.1-1.4-6.8,0.7s-1.4,5.1,0.7,6.8c0.1,0.1,0.2,0.1,0.2,0.2L131.3,188.6z"/>
		<path class="st1" d="M225.9,138.8c0.6,2,2.5,3.4,4.6,3.5c0.5,0,0.9-0.1,1.4-0.2c2.6-0.8,4-3.5,3.2-6c0,0,0,0,0,0l-5.6-18.7
			c-0.8-2.6-3.5-4-6-3.2c-2.6,0.8-4,3.5-3.2,6L225.9,138.8z"/>
		<path class="st1" d="M260.3,139.8c2.7,0,4.8-2.2,4.8-4.8v-19.4c0-2.7-2.2-4.8-4.8-4.8c-2.7,0-4.8,2.2-4.8,4.8V135
			C255.5,137.7,257.7,139.8,260.3,139.8z"/>
		<path class="st1" d="M194.5,290.2c-26.7-12.2-50.2-30.5-68.4-53.6c9.3-11.6,19.9-22.1,31.6-31.3c2.1-1.7,2.5-4.7,0.8-6.8
			c-1.7-2.1-4.7-2.5-6.8-0.8c-13.3,10.5-25.3,22.6-35.6,36c-1.3,1.7-1.3,4.2,0,5.9c19.6,25.6,45.1,46,74.5,59.4
			c2.4,1.1,5.3,0,6.4-2.5C198.1,294.1,197,291.3,194.5,290.2L194.5,290.2z"/>
		<path class="st1" d="M404.6,239.6c1.3-1.7,1.3-4.2,0-5.9c-36.7-47.3-89.2-74.5-144.2-74.5c-33.2,0.1-65.6,9.8-93.5,27.8
			c-2.3,1.4-2.9,4.4-1.5,6.7c1.4,2.3,4.4,2.9,6.7,1.5l0,0c12.3-7.8,25.5-14,39.4-18.5c-33.1,26.9-38.2,75.6-11.3,108.7
			c3.5,4.3,7.4,8.2,11.7,11.6v7.4c-8,0-14.5,6.5-14.5,14.5c0,8,6.5,14.5,14.5,14.5h96.8c2.7,0,4.8,2.2,4.8,4.8s-2.2,4.8-4.8,4.8
			h-96.8c-2.7,0-4.8,2.2-4.8,4.8c0,2.7,2.2,4.8,4.8,4.8c0,26.7,21.7,48.4,48.4,48.4c26.7,0,48.4-21.7,48.4-48.4
			c8,0,14.5-6.4,14.5-14.4c0-3.6-1.3-7.1-3.8-9.8c5.4-5.9,5-15-0.9-20.4c-2.7-2.4-6.2-3.8-9.8-3.8V297c18.4-14.6,29.1-36.9,29-60.4
			c0-5.6-0.6-11.1-1.8-16.5c-0.5-2.6-3.1-4.3-5.7-3.8c-2.6,0.5-4.3,3.1-3.8,5.7c0,0,0,0.1,0,0.1c1,4.8,1.6,9.6,1.6,14.5
			c0.1,21.3-10,41.4-27.1,54.1c-1.2,0.9-1.9,2.3-1.9,3.9v9.8h-19.4v-34.3c16.4-9.4,23.6-29.3,16.9-47c-0.6-1.7-2.2-2.9-4.1-3.1
			c-1.8-0.2-3.6,0.7-4.6,2.3c-1.7,2.9-4.9,4.7-8.2,4.7c-5.3,0-9.7-4.3-9.7-9.7c0-3.4,1.8-6.5,4.7-8.2c2.3-1.4,3-4.4,1.6-6.7
			c-0.6-0.9-1.4-1.6-2.4-2c-20-7.5-42.3,2.6-49.8,22.6c-1.6,4.4-2.5,9-2.5,13.7c0.1,13.8,7.4,26.6,19.4,33.5v34.3h-19.4v-9.8
			c0-1.5-0.7-3-1.9-3.9c-29.9-22.5-35.9-64.9-13.4-94.8s64.9-35.9,94.8-13.4c8,6,14.6,13.8,19.3,22.7c1.2,2.4,4.2,3.3,6.5,2
			s3.3-4.2,2-6.5c-4.8-9.2-11.5-17.4-19.5-24c33.6,11.2,63.2,32.1,85.2,60c-18.3,23-41.7,41.4-68.4,53.6c-2.4,1.1-3.5,4-2.5,6.4
			c1.1,2.4,4,3.5,6.4,2.5C359.4,285.6,385,265.2,404.6,239.6z M260.3,391.5c-21.4,0-38.7-17.3-38.7-38.7h77.5
			C299.1,374.2,281.7,391.5,260.3,391.5z M313.6,318.9c0,2.7-2.2,4.8-4.8,4.8h-96.8c-2.7,0-4.8-2.2-4.8-4.8c0-2.7,2.2-4.8,4.8-4.8
			h96.8C311.4,314.1,313.6,316.3,313.6,318.9z M247.9,262.8c-14.5-6.9-20.6-24.3-13.7-38.7c4.8-10.1,15-16.5,26.1-16.5
			c0.8,0,1.7,0,2.5,0.1c-5.3,9.3-2,21.1,7.3,26.4c5.9,3.4,13.2,3.4,19.1,0c0.1,0.8,0.1,1.7,0.1,2.5c0,11.2-6.5,21.4-16.6,26.2
			c-1.7,0.8-2.8,2.5-2.8,4.4v37.2h-19.4v-37.2C250.7,265.3,249.6,263.6,247.9,262.8z"/>
		<path class="st1" d="M360.6,302.5c-1.7-2-4.8-2.3-6.8-0.6c-2,1.7-2.3,4.8-0.6,6.8l12.7,15.1c1.7,2,4.8,2.3,6.8,0.6
			c2-1.7,2.3-4.8,0.6-6.8L360.6,302.5z"/>
		<path class="st1" d="M389.5,277.9c-2-1.8-5-1.6-6.8,0.4s-1.6,5,0.4,6.8c0.1,0.1,0.2,0.1,0.3,0.2l15,12.6c2.1,1.7,5.1,1.3,6.8-0.8
			c1.6-2,1.4-4.9-0.6-6.7L389.5,277.9z"/>
		<path class="st1" d="M160.1,302.5l-12.7,15.1c-1.7,2-1.5,5.1,0.6,6.8c2,1.7,5.1,1.5,6.8-0.6l12.7-15.1c1.7-2,1.5-5.1-0.5-6.8
			C165,300.2,161.9,300.4,160.1,302.5C160.2,302.5,160.1,302.5,160.1,302.5L160.1,302.5z"/>
		<path class="st1" d="M131.3,277.8L117,288.8c-2.2,1.6-2.7,4.6-1.1,6.8c1.6,2.2,4.6,2.7,6.8,1.1c0.1-0.1,0.2-0.1,0.2-0.2l14.3-11.1
			c2.2-1.6,2.7-4.6,1.1-6.8s-4.6-2.7-6.8-1.1C131.5,277.6,131.4,277.7,131.3,277.8z"/>
	</g>
</g>
</svg>
