<?xml version="1.0" encoding="utf-8"?>
<!-- Generator: Adobe Illustrator 23.1.0, SVG Export Plug-In . SVG Version: 6.00 Build 0)  -->
<svg version="1.1" id="Capa_1" xmlns="http://www.w3.org/2000/svg" xmlns:xlink="http://www.w3.org/1999/xlink" x="0px" y="0px"
	 viewBox="0 0 512 512" style="enable-background:new 0 0 512 512;" xml:space="preserve">
<style type="text/css">
	.st0{fill:#5D4E60;}
	.st1{fill:#FFFFFF;}
</style>
<circle class="st0" cx="256.1" cy="256" r="256"/>
<g id="Outline">
	<g>
		<path class="st1" d="M357.3,298.3H337c-2.8,0-5.1,2.3-5.1,5.1c0,2.8,2.3,5.1,5.1,5.1h20.2c2.8,0,5.1-2.3,5.1-5.1
			C362.3,300.5,360,298.3,357.3,298.3z"/>
		<path class="st1" d="M357.3,318.5h-35.4c-2.8,0-5.1,2.3-5.1,5.1c0,2.8,2.3,5.1,5.1,5.1h35.4c2.8,0,5.1-2.3,5.1-5.1
			C362.3,320.8,360,318.5,357.3,318.5z"/>
		<path class="st1" d="M164.9,308.4h20.2c2.8,0,5.1-2.3,5.1-5.1c0-2.8-2.3-5.1-5.1-5.1h-20.2c-2.8,0-5.1,2.3-5.1,5.1
			C159.9,306.1,162.1,308.4,164.9,308.4z"/>
		<path class="st1" d="M190.2,318.5h-35.4c-2.8,0-5.1,2.3-5.1,5.1c0,2.8,2.3,5.1,5.1,5.1h35.4c2.8,0,5.1-2.3,5.1-5.1
			C195.3,320.8,193,318.5,190.2,318.5z"/>
		<path class="st1" d="M367.4,186.9h-13.5c-3.5-13.8-9.9-26.6-18.8-37.7l9.2-7.8l33.9-5.1c2.2-0.3,4-2,4.4-4.3
			c0.3-2.2-0.8-4.3-2.7-5.3l-18.7-9.4l-9.4-18.7c-1.2-2.5-4.2-3.6-6.7-2.4c-1.6,0.7-2.7,2.3-2.9,4l-4.8,33.6l-8.9,7.9
			c-39.1-39.9-103.2-40.6-143.1-1.5c-13.1,12.8-22.5,29-27.1,46.8h-13.5c-8.4,0-15.2,6.8-15.2,15.2v131.6c0,8.4,6.8,15.2,15.2,15.2
			h61.4l-13.5,20.2h-12.4c-8.4,0-15.2,6.8-15.2,15.2v10.1c0,2.8,2.3,5.1,5.1,5.1h172.1c2.8,0,5.1-2.3,5.1-5.1v-10.1
			c0-8.4-6.8-15.2-15.2-15.2h-12.4L306,348.9h61.4c8.4,0,15.2-6.8,15.2-15.2V202.1C382.6,193.7,375.8,186.9,367.4,186.9z
			 M349.9,117.7l2.9,5.8c0.5,1,1.3,1.8,2.2,2.2l5.8,2.9l-12.7,1.8L349.9,117.7z M256,121.1c24.4,0,47.7,9.8,64.8,27.2l-11.4,10.1
			c-30.1-30.2-78.9-30.2-109.1-0.1s-30.2,78.9-0.1,109.1s78.9,30.2,109.1,0.1c27.4-27.3,30.3-70.7,6.8-101.4l11.4-10.1
			c31.1,39.6,24.2,96.8-15.4,127.9s-96.8,24.2-127.9-15.4s-24.2-96.8,15.4-127.9C215.7,128,235.6,121.1,256,121.1z M296.5,212.2
			c0,22.4-18.1,40.5-40.4,40.5c-22.4,0-40.5-18.1-40.5-40.4s18.1-40.5,40.4-40.5c9.9,0,19.4,3.6,26.8,10.1L271.2,192
			c-11.3-8.6-27.4-6.4-36,4.9c-8.6,11.3-6.4,27.4,4.9,36c11.3,8.6,27.4,6.4,36-4.9c6.3-8.2,7-19.5,1.8-28.4l11.6-10.1
			C294.1,196.2,296.5,204.1,296.5,212.2z M271.2,212.2c0,8.4-6.8,15.2-15.2,15.2c-8.4,0-15.2-6.8-15.2-15.2s6.8-15.2,15.2-15.2
			c2.6,0,5.1,0.7,7.3,2l-10.7,9.4c-2.1,1.8-2.3,5-0.5,7.1c1.8,2.1,5,2.3,7.1,0.5l10.7-9.5C270.8,208.4,271.2,210.3,271.2,212.2z
			 M290.4,175.2c-20.6-19.2-52.9-18.1-72.1,2.6s-18.1,52.9,2.6,72.1s52.9,18.1,72.1-2.6c16.6-17.8,18.3-44.8,4.1-64.5l11.4-10.1
			c21.5,28.9,15.6,69.8-13.3,91.4c-28.9,21.5-69.8,15.6-91.4-13.3s-15.6-69.8,13.3-91.4c25.8-19.2,61.7-16.8,84.7,5.7L290.4,175.2z
			 M337,384.3v5.1h-162v-5.1c0-2.8,2.3-5.1,5.1-5.1h151.8C334.7,379.3,337,381.5,337,384.3z M307.3,369.1H204.8l13.5-20.2h75.5
			L307.3,369.1z M372.4,333.7c0,2.8-2.3,5.1-5.1,5.1H144.7c-2.8,0-5.1-2.3-5.1-5.1V202.1c0-2.8,2.3-5.1,5.1-5.1h11.4
			c-0.8,5-1.2,10.1-1.3,15.2c0,55.9,45.3,101.2,101.2,101.2s101.2-45.3,101.2-101.2c0-5.1-0.5-10.2-1.3-15.2h11.4
			c2.8,0,5.1,2.3,5.1,5.1V333.7z"/>
	</g>
</g>
</svg>
