<?xml version="1.0" encoding="utf-8"?>
<!-- Generator: Adobe Illustrator 23.1.0, SVG Export Plug-In . SVG Version: 6.00 Build 0)  -->
<svg version="1.1" id="Ebene_1" xmlns="http://www.w3.org/2000/svg" xmlns:xlink="http://www.w3.org/1999/xlink" x="0px" y="0px"
	 viewBox="0 0 171.2 164.9" style="enable-background:new 0 0 171.2 164.9;" xml:space="preserve">
<style type="text/css">
	.st0{fill:#5D4E60;}
	.st1{fill:#37293A;}
	.st2{fill:#1C131E;}
	.st3{fill:#EF6457;}
</style>
<g>
	<path class="st0" d="M80.2,0.2C71.4,62.2,43.4,119.7,0.1,164.8h48.6c36.2-46.2,59.7-101.2,67.9-159.7c-11.5-1.6-23.1-3.2-34.6-4.8
		H80.2z"/>
	<path class="st1" d="M149.9,101.8c-54.1,8.3-105.5,29.9-149.7,63h70.1c30.9-15.1,64.2-24.7,98.5-28.5
		C161.8,125.2,155.5,113.7,149.9,101.8z"/>
	<path class="st1" d="M114.1,4.7c-9.5-1.3-18.9-2.7-28.4-4l-5.7-0.2c-0.7,5.3-1.6,10.5-2.7,15.7c0.7,27.6,4.8,55,12.1,81.4
		c11.4-24.9,19.7-51.3,24.8-78.5C114.2,14.3,114.1,9.5,114.1,4.7z"/>
	<path class="st2" d="M130.5,105.3c-12,2.6-23.9,5.8-35.5,9.7c3.9,11.6,8.5,23,13.7,34.2c11.9-3.9,24-7,36.3-9.4
		C139.4,128.7,134.5,117.1,130.5,105.3z"/>
	<path class="st3" d="M117,0.2H80.2c1.1,58.2,17.3,114.9,46.9,164.6h43.7C137,116.6,118.2,59.3,117,0.2z"/>
</g>
</svg>
